  0
SECTION
  2
HEADER
  9
$ACADVER
  1
AC1009
  9
$EXTMAX
 10
59.0
 20
215.007751464844
 30
0.0
  9
$EXTMIN
 10
-58.8655319213867
 20
115.0
 30
0.0
  9
$INSUNITS
 70
     4
  9
$LUNITS
 70
     2
  9
$LUPREC
 70
     4
  9
$MEASUREMENT
 70
     1
  0
ENDSEC
  0
SECTION
  2
TABLES
  0
TABLE
  2
LAYER
 70
     1
  0
LAYER
  2
0
 70
     0
 62
     7
  6
Continuous
  0
LAYER
  2
Default
 70
     0
 62
   -70
  6
Continuous
  0
LAYER
  2
plan
 70
     0
 62
   -70
  6
Continuous
  0
LAYER
  2
drive
 70
     0
 62
   -70
  6
Continuous
  0
LAYER
  2
Layer_spacer
 70
     0
 62
    70
  6
Continuous
  0
LAYER
  2
Leg
 70
     0
 62
   -70
  6
Continuous
  0
LAYER
  2
Hub
 70
     0
 62
   -70
  6
Continuous
  0
ENDTAB
  0
TABLE
  2
APPID
 70
     1
  0
APPID
  2
ACAD
 70
     0
  0
ENDTAB
  0
ENDSEC
  0
SECTION
  2
ENTITIES
  0
POLYLINE
  8
plan
 66
     1
 10
0.0
 20
0.0
 30
0.0
 70
     1
  0
VERTEX
  8
plan
 10
43.8573498500606
 20
199.036841774372
 42
0.0
  0
VERTEX
  8
plan
 10
42.6073498500606
 20
201.201905283833
 42
0.0
  0
VERTEX
  8
plan
 10
38.2772228311384
 20
198.701905283833
 42
0.0
  0
VERTEX
  8
plan
 10
39.5272228311384
 20
196.536841774372
 42
0.0
  0
VERTEX
  8
plan
 10
23.5057528611263
 20
187.286841774372
 42
0.0
  0
VERTEX
  8
plan
 10
40.5057528611263
 20
157.841978045701
 42
0.0
  0
VERTEX
  8
plan
 10
28.3813972081441
 20
150.841978045701
 42
0.0
  0
VERTEX
  8
plan
 10
44.3813972081441
 20
123.129165124599
 42
0.0
  0
VERTEX
  8
plan
 10
57.3717782649107
 20
130.629165124599
 42
0.0
  0
VERTEX
  8
plan
 10
59.8717782649107
 20
126.299038105677
 42
0.0
  0
VERTEX
  8
plan
 10
61.3717782649107
 20
123.700961894323
 42
0.0
  0
VERTEX
  8
plan
 10
76.5272228311384
 20
132.450961894323
 42
0.0
  0
VERTEX
  8
plan
 10
77.7772228311384
 20
130.285898384862
 42
0.0
  0
VERTEX
  8
plan
 10
82.1073498500606
 20
132.785898384862
 42
0.0
  0
VERTEX
  8
plan
 10
80.8573498500606
 20
134.950961894323
 42
0.0
  0
VERTEX
  8
plan
 10
221.586477965032
 20
216.200961894323
 42
0.0
  0
VERTEX
  8
plan
 10
220.086477965032
 20
218.799038105677
 42
0.0
  0
VERTEX
  8
plan
 10
94.5127944162883
 20
146.299038105677
 42
0.0
  0
VERTEX
  8
plan
 10
92.0127944162883
 20
150.629165124599
 42
0.0
  0
VERTEX
  8
plan
 10
105.003175473055
 20
158.129165124599
 42
0.0
  0
VERTEX
  8
plan
 10
89.0031754730548
 20
185.841978045701
 42
0.0
  0
VERTEX
  8
plan
 10
76.8788198200727
 20
178.841978045701
 42
0.0
  0
VERTEX
  8
plan
 10
59.8788198200727
 20
208.286841774372
 42
0.0
  0
SEQEND
  0
POLYLINE
  8
plan
 66
     1
 10
0.0
 20
0.0
 30
0.0
 70
     1
  0
VERTEX
  8
plan
 10
-116.357349850061
 20
73.4631582256283
 42
0.0
  0
VERTEX
  8
plan
 10
-117.607349850061
 20
71.2980947161672
 42
0.0
  0
VERTEX
  8
plan
 10
-113.277222831138
 20
68.7980947161672
 42
0.0
  0
VERTEX
  8
plan
 10
-112.027222831138
 20
70.9631582256283
 42
0.0
  0
VERTEX
  8
plan
 10
-96.0057528611263
 20
61.7131582256283
 42
0.0
  0
VERTEX
  8
plan
 10
-79.0057528611263
 20
91.1580219542992
 42
0.0
  0
VERTEX
  8
plan
 10
-66.8813972081441
 20
84.1580219542992
 42
0.0
  0
VERTEX
  8
plan
 10
-50.8813972081441
 20
111.870834875401
 42
0.0
  0
VERTEX
  8
plan
 10
-63.8717782649107
 20
119.370834875401
 42
0.0
  0
VERTEX
  8
plan
 10
-61.3717782649107
 20
123.700961894323
 42
0.0
  0
VERTEX
  8
plan
 10
-59.8717782649107
 20
126.299038105677
 42
0.0
  0
VERTEX
  8
plan
 10
-75.0272228311384
 20
135.049038105677
 42
0.0
  0
VERTEX
  8
plan
 10
-73.7772228311384
 20
137.214101615138
 42
0.0
  0
VERTEX
  8
plan
 10
-78.1073498500605
 20
139.714101615138
 42
0.0
  0
VERTEX
  8
plan
 10
-79.3573498500605
 20
137.549038105677
 42
0.0
  0
VERTEX
  8
plan
 10
-220.086477965032
 20
218.799038105677
 42
0.0
  0
VERTEX
  8
plan
 10
-221.586477965032
 20
216.200961894323
 42
0.0
  0
VERTEX
  8
plan
 10
-96.0127944162882
 20
143.700961894323
 42
0.0
  0
VERTEX
  8
plan
 10
-98.5127944162882
 20
139.370834875401
 42
0.0
  0
VERTEX
  8
plan
 10
-111.503175473055
 20
146.870834875401
 42
0.0
  0
VERTEX
  8
plan
 10
-127.503175473055
 20
119.158021954299
 42
0.0
  0
VERTEX
  8
plan
 10
-115.378819820073
 20
112.158021954299
 42
0.0
  0
VERTEX
  8
plan
 10
-132.378819820073
 20
82.7131582256283
 42
0.0
  0
SEQEND
  0
POLYLINE
  8
plan
 66
     1
 10
0.0
 20
0.0
 30
0.0
 70
     1
  0
VERTEX
  8
plan
 10
72.5
 20
-2.5
 42
0.0
  0
VERTEX
  8
plan
 10
75.0
 20
-2.5
 42
0.0
  0
VERTEX
  8
plan
 10
75.0
 20
2.5
 42
0.0
  0
VERTEX
  8
plan
 10
72.5
 20
2.5
 42
0.0
  0
VERTEX
  8
plan
 10
72.5
 20
21.0
 42
0.0
  0
VERTEX
  8
plan
 10
38.5
 20
21.0
 42
0.0
  0
VERTEX
  8
plan
 10
38.5
 20
35.0
 42
0.0
  0
VERTEX
  8
plan
 10
6.5
 20
35.0
 42
0.0
  0
VERTEX
  8
plan
 10
6.5
 20
20.0
 42
0.0
  0
VERTEX
  8
plan
 10
1.5
 20
20.0
 42
0.0
  0
VERTEX
  8
plan
 10
-1.5
 20
20.0
 42
0.0
  0
VERTEX
  8
plan
 10
-1.5
 20
2.5
 42
0.0
  0
VERTEX
  8
plan
 10
-4.0
 20
2.5
 42
0.0
  0
VERTEX
  8
plan
 10
-4.0
 20
-2.5
 42
0.0
  0
VERTEX
  8
plan
 10
-1.5
 20
-2.5
 42
0.0
  0
VERTEX
  8
plan
 10
-1.5000000000001
 20
-165.0
 42
0.0
  0
VERTEX
  8
plan
 10
1.4999999999999
 20
-165.0
 42
0.0
  0
VERTEX
  8
plan
 10
1.5
 20
-20.0
 42
0.0
  0
VERTEX
  8
plan
 10
6.5
 20
-20.0
 42
0.0
  0
VERTEX
  8
plan
 10
6.5
 20
-35.0
 42
0.0
  0
VERTEX
  8
plan
 10
38.5
 20
-35.0
 42
0.0
  0
VERTEX
  8
plan
 10
38.5
 20
-21.0
 42
0.0
  0
VERTEX
  8
plan
 10
72.5
 20
-21.0
 42
0.0
  0
SEQEND
  0
POINT
  8
plan
 10
0.0
 20
90.0
 30
0.0
  0
POLYLINE
  8
drive
 66
     1
 10
0.0
 20
0.0
 30
0.0
 70
     1
  0
VERTEX
  8
drive
 10
72.5
 20
-2.5
 42
0.0
  0
VERTEX
  8
drive
 10
75.0
 20
-2.5
 42
0.0
  0
VERTEX
  8
drive
 10
75.0
 20
2.5
 42
0.0
  0
VERTEX
  8
drive
 10
72.5
 20
2.5
 42
0.0
  0
VERTEX
  8
drive
 10
72.5
 20
21.0
 42
0.0
  0
VERTEX
  8
drive
 10
38.5
 20
21.0
 42
0.0
  0
VERTEX
  8
drive
 10
38.5
 20
35.0
 42
0.0
  0
VERTEX
  8
drive
 10
6.5
 20
35.0
 42
0.0
  0
VERTEX
  8
drive
 10
6.5
 20
20.0
 42
0.0
  0
VERTEX
  8
drive
 10
1.5
 20
20.0
 42
0.0
  0
VERTEX
  8
drive
 10
-1.5
 20
20.0
 42
0.0
  0
VERTEX
  8
drive
 10
-1.5
 20
2.5
 42
0.0
  0
VERTEX
  8
drive
 10
-4.0
 20
2.5
 42
0.0
  0
VERTEX
  8
drive
 10
-4.0
 20
-2.5
 42
0.0
  0
VERTEX
  8
drive
 10
-1.5
 20
-2.5
 42
0.0
  0
VERTEX
  8
drive
 10
-1.5
 20
-165.0
 42
0.0
  0
VERTEX
  8
drive
 10
1.5
 20
-165.0
 42
0.0
  0
VERTEX
  8
drive
 10
1.5
 20
-20.0
 42
0.0
  0
VERTEX
  8
drive
 10
6.5
 20
-20.0
 42
0.0
  0
VERTEX
  8
drive
 10
6.5
 20
-35.0
 42
0.0
  0
VERTEX
  8
drive
 10
38.5
 20
-35.0
 42
0.0
  0
VERTEX
  8
drive
 10
38.5
 20
-21.0
 42
0.0
  0
VERTEX
  8
drive
 10
72.5
 20
-21.0
 42
0.0
  0
SEQEND
  0
CIRCLE
  8
drive
 10
0.0
 20
90.0
 30
0.0
 40
90.0
  0
CIRCLE
  8
Layer_spacer
 10
-35.0
 20
200.0
 30
0.0
 40
2.5
  0
CIRCLE
  8
Layer_spacer
 10
35.0
 20
200.0
 30
0.0
 40
2.5
  0
POLYLINE
  8
Layer_spacer
 66
     1
 10
0.0
 20
0.0
 30
0.0
 70
     1
  0
VERTEX
  8
Layer_spacer
 10
59.0
 20
185.0
 42
0.0
  0
VERTEX
  8
Layer_spacer
 10
59.0
 20
200.0
 42
0.0
  0
VERTEX
  8
Layer_spacer
 10
50.0
 20
200.0
 42
0.0
  0
VERTEX
  8
Layer_spacer
 10
50.0
 20
215.007751851774
 42
0.0
  0
VERTEX
  8
Layer_spacer
 10
-49.8655302250733
 20
215.007751851774
 42
0.0
  0
VERTEX
  8
Layer_spacer
 10
-49.8655302250733
 20
200.0
 42
0.0
  0
VERTEX
  8
Layer_spacer
 10
-58.8655302250733
 20
200.0
 42
0.0
  0
VERTEX
  8
Layer_spacer
 10
-58.8655302250733
 20
185.0
 42
0.0
  0
VERTEX
  8
Layer_spacer
 10
-49.8655302250733
 20
185.0
 42
0.0
  0
VERTEX
  8
Layer_spacer
 10
-49.8655302250733
 20
145.0
 42
0.0
  0
VERTEX
  8
Layer_spacer
 10
-58.8655302250733
 20
145.0
 42
0.0
  0
VERTEX
  8
Layer_spacer
 10
-58.8655302250733
 20
130.0
 42
0.0
  0
VERTEX
  8
Layer_spacer
 10
-49.8655302250733
 20
130.0
 42
0.0
  0
VERTEX
  8
Layer_spacer
 10
-49.8655302250733
 20
115.0
 42
0.0
  0
VERTEX
  8
Layer_spacer
 10
50.0
 20
115.0
 42
0.0
  0
VERTEX
  8
Layer_spacer
 10
50.0
 20
130.0
 42
0.0
  0
VERTEX
  8
Layer_spacer
 10
59.0
 20
130.0
 42
0.0
  0
VERTEX
  8
Layer_spacer
 10
59.0
 20
145.0
 42
0.0
  0
VERTEX
  8
Layer_spacer
 10
50.0
 20
145.0
 42
0.0
  0
VERTEX
  8
Layer_spacer
 10
50.0
 20
185.0
 42
0.0
  0
SEQEND
  0
POLYLINE
  8
Leg
 66
     1
 10
0.0
 20
0.0
 30
0.0
 70
     0
  0
VERTEX
  8
Leg
 10
-49.862858759096
 20
202.809709303831
 42
-0.4010583241599
  0
VERTEX
  8
Leg
 10
126.335328777596
 20
396.716257396975
 42
0.0
  0
VERTEX
  8
Leg
 10
126.409825989458
 20
396.759665803527
 42
0.0
  0
VERTEX
  8
Leg
 10
549.94636642296
 20
437.741800074177
 42
0.0
  0
VERTEX
  8
Leg
 10
549.946474324266
 20
367.973671377314
 42
0.0
  0
VERTEX
  8
Leg
 10
549.946474324266
 20
367.672399547823
 42
0.0
  0
VERTEX
  8
Leg
 10
549.946474324266
 20
364.982472498795
 42
0.0
  0
VERTEX
  8
Leg
 10
137.967390469623
 20
300.82011992325
 42
0.0
  0
VERTEX
  8
Leg
 10
135.84161421206
 20
300.507101089208
 42
0.3709978604604
  0
VERTEX
  8
Leg
 10
50.0103660871261
 20
201.942176943707
 42
0.0008920974944
  0
VERTEX
  8
Leg
 10
50.0088813757806
 20
201.584647827559
 42
0.0
  0
VERTEX
  8
Leg
 10
50.0
 20
115.0
 42
0.0
  0
VERTEX
  8
Leg
 10
-50.0
 20
115.0
 42
0.0
  0
VERTEX
  8
Leg
 10
-50.0295990613685
 20
202.263676276183
 42
0.0
  0
SEQEND
  0
CIRCLE
  8
Leg
 10
-35.0
 20
200.0
 30
0.0
 40
2.5
  0
CIRCLE
  8
Leg
 10
542.50409555349
 20
401.375895810841
 30
0.0
 40
2.5
  0
CIRCLE
  8
Leg
 10
35.0
 20
200.0
 30
0.0
 40
2.5
  0
CIRCLE
  8
Hub
 10
0.0
 20
90.0
 30
0.0
 40
25.0
  0
POLYLINE
  8
Hub
 66
     1
 10
0.0
 20
0.0
 30
0.0
 70
     1
  0
VERTEX
  8
Hub
 10
-49.8813972081441
 20
66.39711431703
 42
0.0
  0
VERTEX
  8
Hub
 10
-45.3813972081441
 20
58.60288568297
 42
0.0
  0
VERTEX
  8
Hub
 10
-32.3910161513776
 20
66.10288568297
 42
0.0
  0
VERTEX
  8
Hub
 10
-36.8910161513776
 20
73.89711431703
 42
0.0
  0
SEQEND
  0
POLYLINE
  8
Hub
 66
     1
 10
0.0
 20
0.0
 30
0.0
 70
     1
  0
VERTEX
  8
Hub
 10
-84.5224133595217
 20
46.39711431703
 42
0.0
  0
VERTEX
  8
Hub
 10
-97.5127944162883
 20
38.89711431703
 42
0.0
  0
VERTEX
  8
Hub
 10
-93.0127944162883
 20
31.10288568297
 42
0.0
  0
VERTEX
  8
Hub
 10
-80.0224133595217
 20
38.60288568297
 42
0.0
  0
SEQEND
  0
POLYLINE
  8
Hub
 66
     1
 10
0.0
 20
0.0
 30
0.0
 70
     1
  0
VERTEX
  8
Hub
 10
80.0224133595216
 20
38.60288568297
 42
0.0
  0
VERTEX
  8
Hub
 10
93.0127944162882
 20
31.10288568297
 42
0.0
  0
VERTEX
  8
Hub
 10
97.5127944162882
 20
38.8971143170299
 42
0.0
  0
VERTEX
  8
Hub
 10
84.5224133595216
 20
46.3971143170299
 42
0.0
  0
SEQEND
  0
POLYLINE
  8
Hub
 66
     1
 10
0.0
 20
0.0
 30
0.0
 70
     1
  0
VERTEX
  8
Hub
 10
45.3813972081441
 20
58.60288568297
 42
0.0
  0
VERTEX
  8
Hub
 10
49.8813972081441
 20
66.39711431703
 42
0.0
  0
VERTEX
  8
Hub
 10
36.8910161513775
 20
73.89711431703
 42
0.0
  0
VERTEX
  8
Hub
 10
32.3910161513775
 20
66.10288568297
 42
0.0
  0
SEQEND
  0
CIRCLE
  8
Hub
 10
17.0464918760506
 20
-16.9962049761624
 30
0.0
 40
2.5
  0
CIRCLE
  8
Hub
 10
-101.184677555909
 20
128.735407478016
 30
0.0
 40
2.5
  0
CIRCLE
  8
Hub
 10
-71.7463870013407
 20
111.739202501854
 30
0.0
 40
2.5
  0
CIRCLE
  8
Hub
 10
84.1381856798583
 20
158.260797498146
 30
0.0
 40
2.5
  0
CIRCLE
  8
Hub
 10
54.6998951252901
 20
141.264592521984
 30
0.0
 40
2.5
  0
CIRCLE
  8
Hub
 10
17.0464918760506
 20
16.9962049761624
 30
0.0
 40
2.5
  0
POLYLINE
  8
Hub
 66
     1
 10
0.0
 20
0.0
 30
0.0
 70
     1
  0
VERTEX
  8
Hub
 10
-94.572916156396
 20
8.2628387471445
 42
0.0
  0
VERTEX
  8
Hub
 10
-50.5
 20
33.7083487540115
 42
0.0
  0
VERTEX
  8
Hub
 10
-48.2627944162883
 20
35.0
 42
0.0
  0
VERTEX
  8
Hub
 10
9.5
 20
35.0
 42
0.0
  0
VERTEX
  8
Hub
 10
9.5
 20
-34.638477205075
 42
0.2984807544911
  0
VERTEX
  8
Hub
 10
118.072916156396
 20
48.966032725013
 42
0.0
  0
VERTEX
  8
Hub
 10
74.0
 20
74.4115427318801
 42
0.0
  0
VERTEX
  8
Hub
 10
71.7627944162882
 20
75.7031939778686
 42
0.0
  0
VERTEX
  8
Hub
 10
42.8813972081441
 20
125.727241335952
 42
0.0
  0
VERTEX
  8
Hub
 10
103.190087548603
 20
160.54647993849
 42
0.2984807544911
  0
VERTEX
  8
Hub
 10
-23.4999999999999
 20
212.771128527842
 42
0.0
  0
VERTEX
  8
Hub
 10
-23.4999999999999
 20
161.880108514108
 42
0.0
  0
VERTEX
  8
Hub
 10
-23.5
 20
159.296806022131
 42
0.0
  0
VERTEX
  8
Hub
 10
-52.3813972081441
 20
109.272758664048
 42
0.0
  0
VERTEX
  8
Hub
 10
-112.690087548603
 20
144.091997266585
 42
0.2984807544911
  0
SEQEND
  0
POLYLINE
  8
Hub
 66
     1
 10
0.0
 20
0.0
 30
0.0
 70
     1
  0
VERTEX
  8
Hub
 10
4.5
 20
145.0
 42
0.0
  0
VERTEX
  8
Hub
 10
-4.5
 20
145.0
 42
0.0
  0
VERTEX
  8
Hub
 10
-4.5
 20
130.0
 42
0.0
  0
VERTEX
  8
Hub
 10
4.5
 20
130.0
 42
0.0
  0
SEQEND
  0
POLYLINE
  8
Hub
 66
     1
 10
0.0
 20
0.0
 30
0.0
 70
     1
  0
VERTEX
  8
Hub
 10
4.5
 20
185.0
 42
0.0
  0
VERTEX
  8
Hub
 10
4.5
 20
200.0
 42
0.0
  0
VERTEX
  8
Hub
 10
-4.5
 20
200.0
 42
0.0
  0
VERTEX
  8
Hub
 10
-4.5
 20
185.0
 42
0.0
  0
SEQEND
  0
ENDSEC
  0
EOF
